<svg width="1985" height="1343" xmlns="http://www.w3.org/2000/svg" xmlns:xlink="http://www.w3.org/1999/xlink" xml:space="preserve" overflow="hidden"><g transform="translate(-925 1443)"><g><g><g><g><path d="M207.502 486.862C207.502 486.862 319.829 577.467 453.875 494.621 494.836 455.523 331.889 440.157 290.62 473.672 275.288 486.121 272.354 514.375 292.006 561.54 311.658 608.704 356.942 716.79 354.935 730.547 352.927 744.303 502.366 1170.75 502.366 1170.75L911.043 742.338 852.087 598.878C852.087 598.878 947.975 566.675 963.999 569.09 963.999 569.09 1030.29 555.557 1036.82 604.774 1041.26 638.33 1025.67 655.057 1006.02 668.814 986.365 682.57 934.626 689.278 934.626 689.278" stroke="#A7C9DE" stroke-width="35.3736" stroke-linecap="butt" stroke-linejoin="miter" stroke-miterlimit="10" stroke-opacity="1" fill="none" fill-rule="nonzero" transform="matrix(1 0 0 1.00022 1343.99 -1831.3)"/><path d="M1066.29 1115.73 868.3 638.33 378.474 712.86 97.0698 1120.61 502.366 1170.75" stroke="#A7C9DE" stroke-width="35.3736" stroke-linecap="butt" stroke-linejoin="miter" stroke-miterlimit="10" stroke-opacity="1" fill="none" fill-rule="nonzero" transform="matrix(1 0 0 1.00022 1343.99 -1831.3)"/><path d="M-208.978 1212.51C-215.485 1187.23-218.946 1160.73-218.946 1133.41-218.946 958.671-77.2905 817.015 97.451 817.015 272.193 817.015 413.848 958.671 413.848 1133.41 413.848 1160.73 410.387 1187.23 403.88 1212.51" stroke="#A7C9DE" stroke-width="35.3736" stroke-linecap="butt" stroke-linejoin="miter" stroke-miterlimit="10" stroke-opacity="1" fill="none" fill-rule="nonzero" transform="matrix(1 0 0 1.00022 1343.99 -1831.3)"/><path d="M759.623 1211.56C753.271 1186.57 749.897 1160.38 749.897 1133.41 749.897 958.671 891.552 817.015 1066.29 817.015 1241.04 817.015 1382.69 958.671 1382.69 1133.41 1382.69 1160.73 1379.23 1187.23 1372.72 1212.51" stroke="#A7C9DE" stroke-width="35.3736" stroke-linecap="butt" stroke-linejoin="miter" stroke-miterlimit="10" stroke-opacity="1" fill="none" fill-rule="nonzero" transform="matrix(1 0 0 1.00022 1343.99 -1831.3)"/></g></g></g><text fill="#FFFFFF" fill-opacity="1" font-family="Work Sans SemiBold,Work Sans SemiBold_MSFontService,sans-serif" font-style="normal" font-variant="normal" font-weight="600" font-stretch="normal" font-size="220" text-anchor="start" direction="ltr" writing-mode="lr-tb" unicode-bidi="normal" text-decoration="none" transform="matrix(1 0 0 1 1059.79 -402)">ACTIVE TRAVEL</text><text fill="#A8C9DF" fill-opacity="1" font-family="Work Sans,Work Sans_MSFontService,sans-serif" font-style="normal" font-variant="normal" font-weight="400" font-stretch="normal" font-size="147" text-anchor="start" direction="ltr" writing-mode="lr-tb" unicode-bidi="normal" text-decoration="none" transform="matrix(1 0 0 1 1536.2 -229)">Dashboard</text><rect x="1027" y="-299" width="442" height="38.0002" fill="#A8C9DF" fill-opacity="1"/><rect x="2384" y="-299" width="442" height="38.0002" fill="#A8C9DF" fill-opacity="1"/></g></g></svg>